<?xml version="1.0" encoding="iso-8859-1"?>
<!-- Generator: Adobe Illustrator 19.0.0, SVG Export Plug-In . SVG Version: 6.00 Build 0)  -->
<svg version="1.1" id="Capa_1" xmlns="http://www.w3.org/2000/svg" xmlns:xlink="http://www.w3.org/1999/xlink" x="0px" y="0px"
	 viewBox="0 0 485 485" style="enable-background:new 0 0 485 485;" xml:space="preserve">
<g>
	<path d="M333.333,311.667V270h-78.372v-42.298c44.555-6.786,79.457-43.32,83.753-88.634C383.749,114.457,412.385,66.731,412.385,15
		V0H67.538v15c0,51.731,28.636,99.457,73.671,124.068c4.296,45.315,39.197,81.848,83.752,88.634V270h-73.294v83.333H0V485h485
		V311.667H333.333z M339.165,103.029V30h42.195C377.39,58.947,362.082,85.23,339.165,103.029z M98.563,30h42.195v73.029
		C117.84,85.23,102.533,58.947,98.563,30z M170.758,129.632V30h138.407v99.632c0,38.159-31.045,69.203-69.204,69.203
		S170.758,167.791,170.758,129.632z M303.333,300v155H181.667V300H303.333z M30,383.333h121.667V455H30V383.333z M455,455H333.333
		V341.667H455V455z"/>
</g>
<g>
</g>
<g>
</g>
<g>
</g>
<g>
</g>
<g>
</g>
<g>
</g>
<g>
</g>
<g>
</g>
<g>
</g>
<g>
</g>
<g>
</g>
<g>
</g>
<g>
</g>
<g>
</g>
<g>
</g>
</svg>
